<svg width="620" height="760" viewBox="0 0 620 760" fill="none" xmlns="http://www.w3.org/2000/svg">
  <defs>
    <filter id="softShadow" x="-20%" y="-20%" width="140%" height="140%">
      <feDropShadow dx="0" dy="22" stdDeviation="20" flood-color="#9B6B21" flood-opacity="0.18"/>
    </filter>
    <pattern id="gingham" width="28" height="28" patternUnits="userSpaceOnUse">
      <rect width="28" height="28" fill="#F8F4EC"/>
      <rect width="14" height="28" fill="#22201F" opacity="0.9"/>
      <rect width="28" height="14" fill="#22201F" opacity="0.9"/>
      <rect x="14" y="14" width="14" height="14" fill="#FFFFFF" opacity="0.7"/>
    </pattern>
    <linearGradient id="skin" x1="0" y1="180" x2="0" y2="410" gradientUnits="userSpaceOnUse">
      <stop stop-color="#F2C29A"/>
      <stop offset="1" stop-color="#D99070"/>
    </linearGradient>
    <linearGradient id="shirt" x1="120" y1="420" x2="520" y2="760" gradientUnits="userSpaceOnUse">
      <stop stop-color="#E9E4FF"/>
      <stop offset="1" stop-color="#C9B3E9"/>
    </linearGradient>
    <linearGradient id="warm" x1="80" y1="80" x2="570" y2="700" gradientUnits="userSpaceOnUse">
      <stop stop-color="#FFD56F" stop-opacity="0.95"/>
      <stop offset="1" stop-color="#F6A81D" stop-opacity="0.7"/>
    </linearGradient>
  </defs>

  <g filter="url(#softShadow)">
    <path d="M470 126C560 186 590 310 555 431C528 526 454 624 329 637C203 649 104 577 75 470C41 345 80 214 177 143C260 82 384 70 470 126Z" fill="url(#warm)" opacity="0.32"/>

    <path d="M145 515C158 443 213 397 308 397C411 397 480 446 500 526L542 730H78L145 515Z" fill="url(#shirt)" stroke="#172B4D" stroke-width="5"/>
    <path d="M225 423L310 568L396 423C366 404 259 403 225 423Z" fill="#FFF5DA" stroke="#172B4D" stroke-width="4"/>
    <path d="M258 399C263 443 283 476 310 476C338 476 360 443 364 399H258Z" fill="#E6A27F" stroke="#172B4D" stroke-width="4"/>

    <path d="M156 524C170 590 177 665 169 730H78L145 515L156 524Z" fill="#D7C5F2" opacity="0.9"/>
    <path d="M463 524C450 590 442 665 451 730H542L500 526L463 524Z" fill="#BFA6E2" opacity="0.88"/>

    <path d="M186 394C204 308 201 202 310 202C421 202 418 308 436 394C445 439 418 490 372 509C349 519 332 492 310 492C288 492 271 519 248 509C202 490 177 439 186 394Z" fill="#2D201F"/>
    <path d="M228 245C208 290 207 380 228 430C239 458 261 476 310 476C359 476 381 458 392 430C413 380 412 290 392 245C375 207 342 186 310 186C278 186 245 207 228 245Z" fill="url(#skin)" stroke="#172B4D" stroke-width="5"/>
    <path d="M230 258C252 238 281 230 310 230C340 230 368 238 390 258C379 210 346 184 310 184C274 184 241 210 230 258Z" fill="#2D201F"/>

    <path d="M254 342C264 331 281 331 291 342" stroke="#3C2A29" stroke-width="7" stroke-linecap="round"/>
    <path d="M329 342C339 331 356 331 366 342" stroke="#3C2A29" stroke-width="7" stroke-linecap="round"/>
    <path d="M292 398C304 409 325 409 337 398" stroke="#A45B57" stroke-width="6" stroke-linecap="round"/>
    <ellipse cx="241" cy="370" rx="22" ry="16" fill="#F19C8A" opacity="0.55"/>
    <ellipse cx="379" cy="370" rx="22" ry="16" fill="#F19C8A" opacity="0.55"/>

    <path d="M170 238C184 141 244 92 310 92C376 92 436 141 450 238H170Z" fill="url(#gingham)" stroke="#172B4D" stroke-width="5"/>
    <path d="M118 255C136 218 169 199 210 205C258 212 284 230 310 230C336 230 362 212 410 205C451 199 484 218 502 255C482 288 447 303 408 294C365 284 342 267 310 267C278 267 255 284 212 294C173 303 138 288 118 255Z" fill="url(#gingham)" stroke="#172B4D" stroke-width="5"/>
    <path d="M193 204C218 178 258 166 310 166C362 166 402 178 427 204" stroke="#FFF8E8" stroke-width="8" opacity="0.7"/>

    <path d="M162 520C217 565 286 593 375 610" stroke="#4B251F" stroke-width="26" stroke-linecap="round"/>
    <path d="M158 515C213 560 282 588 371 605" stroke="#2A1818" stroke-width="14" stroke-linecap="round"/>
    <rect x="360" y="591" width="44" height="40" rx="10" transform="rotate(12 360 591)" fill="#3A211C" stroke="#F6C456" stroke-width="6"/>

    <path d="M179 438L255 510L310 568L231 423C208 425 191 429 179 438Z" fill="#EEE8FF" stroke="#172B4D" stroke-width="4"/>
    <path d="M441 438L365 510L310 568L389 423C412 425 429 429 441 438Z" fill="#D9C7F1" stroke="#172B4D" stroke-width="4"/>
    <circle cx="348" cy="552" r="12" fill="#E4D6F6" stroke="#7A5FA3" stroke-width="4"/>
    <circle cx="367" cy="630" r="12" fill="#E4D6F6" stroke="#7A5FA3" stroke-width="4"/>
  </g>
</svg>